<?xml version="1.0" encoding="utf-8"?>
<!-- Generator: Adobe Illustrator 16.0.0, SVG Export Plug-In . SVG Version: 6.00 Build 0)  -->
<!DOCTYPE svg PUBLIC "-//W3C//DTD SVG 1.1//EN" "http://www.w3.org/Graphics/SVG/1.1/DTD/svg11.dtd">
<svg version="1.1" id="图层_1" xmlns="http://www.w3.org/2000/svg" xmlns:xlink="http://www.w3.org/1999/xlink" x="0px" y="0px"
	 width="404.98px" height="349.482px" viewBox="105.24 99.551 404.98 349.482"
	 enable-background="new 105.24 99.551 404.98 349.482" xml:space="preserve">
<g>
	<g>
		<linearGradient id="SVGID_1_" gradientUnits="userSpaceOnUse" x1="154.636" y1="274.2925" x2="477.3381" y2="274.2925">
			<stop  offset="0" style="stop-color:#1EBF5E"/>
			<stop  offset="1" style="stop-color:#00903A"/>
		</linearGradient>
		<path fill="url(#SVGID_1_)" d="M477.338,265.539h-46.61c-5.239-50.896-60.48-91.137-127.629-91.137
			c-10.357,0-20.478,0.774-30.181,2.381c-2.977-3.988-6.071-7.441-9.286-10.477c-0.536-0.477-1.071-0.953-1.548-1.429
			c-0.298-0.298-0.595-0.536-0.893-0.833c-28.812-25.418-62.98-16.37-63.457-16.251l-3.69,1.012l-1.548,0.357l4.286,11.072
			l15.477,41.074c-15.596,11.727-26.668,27.025-32.383,44.646h-25.24v63.576h26.014c8.394,25.299,27.502,38.872,42.444,47.027
			v45.896h48.872v-32.026c8.811,1.369,19.704,2.083,31.431,2.083c8.394,0,15.001-0.655,22.323-1.846v31.729h48.872v-46.372
			c34.824-17.978,55.719-47.861,56.492-80.78h7.858c-0.834,1.905-1.251,3.988-1.251,6.191c0,8.75,7.084,15.834,15.835,15.834
			s15.834-7.084,15.834-15.834c0-2.203-0.476-4.286-1.25-6.191h9.168L477.338,265.539L477.338,265.539z M453.586,287.564
			c-3.334,0-6.072-2.738-6.072-6.072s2.738-6.072,6.072-6.072c3.333,0,6.071,2.738,6.071,6.072
			C459.657,284.885,456.919,287.564,453.586,287.564z M367.627,348.699l-2.738,1.31v42.682h-29.347v-33.633l-5.774,1.072
			c-9.465,1.726-16.489,2.679-26.371,2.679c-13.87,0-26.371-1.012-35.359-2.917l-5.894-1.25v34.109h-29.348v-42.027l-2.619-1.369
			c-22.739-11.905-35.836-26.49-41.313-45.956l-1.012-3.572H164.28v-43.991h22.859l1.012-3.571
			c4.881-17.621,15.774-32.86,31.49-44.17l4.584-3.274l-18.395-48.099l-0.119-0.238c10.001-1.072,31.669-0.953,50.183,15.954
			c0.119,0.119,0.238,0.179,0.297,0.297l0.06,0.06c6.489,6.191,12.68,14.525,17.978,25.657c0.417,0.952,0.894,1.905,1.31,2.917l0,0
			c0.298,0.655,0.596,1.31,0.894,1.964l9.048-3.75c-0.298-0.714-0.595-1.31-0.893-1.964l0,0c0-0.06-0.06-0.119-0.06-0.179
			c-0.655-1.488-1.31-2.976-2.024-4.405c-1.19-2.56-2.44-5-3.75-7.263c7.857-1.071,16.013-1.607,24.287-1.607
			c65.243,0,118.342,40.062,118.342,89.292C421.381,304.113,401.321,332.27,367.627,348.699z"/>
	</g>
	<linearGradient id="SVGID_2_" gradientUnits="userSpaceOnUse" x1="314.6477" y1="213.9873" x2="371.9729" y2="213.9873">
		<stop  offset="0" style="stop-color:#1EBF5E"/>
		<stop  offset="1" style="stop-color:#00903A"/>
	</linearGradient>
	<path fill="url(#SVGID_2_)" d="M314.648,210.773c20.239,1.905,38.217,7.62,53.933,16.251l3.393-9.167
		c-16.847-9.346-34.467-14.823-56.016-16.906L314.648,210.773z"/>
</g>
<g>
	
		<linearGradient id="XMLID_8_" gradientUnits="userSpaceOnUse" x1="1201.8557" y1="796.3286" x2="1201.8557" y2="377.73" gradientTransform="matrix(0.5953 0 0 -0.5953 0.0366 623.7396)">
		<stop  offset="0" style="stop-color:#1EBF5E"/>
		<stop  offset="1" style="stop-color:#00903A"/>
	</linearGradient>
	<path id="XMLID_10_" fill="url(#XMLID_8_)" d="M562.253,398.884V149.701h306.449v249.184H562.253L562.253,398.884z
		 M858.345,388.468V198.216H572.55v190.252H858.345L858.345,388.468z M858.345,187.858v-27.859H572.55v27.859H858.345z"/>
	
		<linearGradient id="XMLID_9_" gradientUnits="userSpaceOnUse" x1="1009.2551" y1="796.5024" x2="1009.2551" y2="377.6025" gradientTransform="matrix(0.5953 0 0 -0.5953 0.0366 623.7396)">
		<stop  offset="0" style="stop-color:#1EBF5E"/>
		<stop  offset="1" style="stop-color:#00903A"/>
	</linearGradient>
	<rect id="XMLID_6_" x="590.886" y="168.809" fill="url(#XMLID_9_)" width="19.881" height="10.358"/>
	
		<linearGradient id="XMLID_11_" gradientUnits="userSpaceOnUse" x1="1073.4563" y1="796.5024" x2="1073.4563" y2="377.6025" gradientTransform="matrix(0.5953 0 0 -0.5953 0.0366 623.7396)">
		<stop  offset="0" style="stop-color:#1EBF5E"/>
		<stop  offset="1" style="stop-color:#00903A"/>
	</linearGradient>
	<rect id="XMLID_5_" x="629.103" y="168.809" fill="url(#XMLID_11_)" width="19.883" height="10.358"/>
	
		<linearGradient id="XMLID_12_" gradientUnits="userSpaceOnUse" x1="1137.554" y1="796.5024" x2="1137.554" y2="377.6025" gradientTransform="matrix(0.5953 0 0 -0.5953 0.0366 623.7396)">
		<stop  offset="0" style="stop-color:#1EBF5E"/>
		<stop  offset="1" style="stop-color:#00903A"/>
	</linearGradient>
	<rect id="XMLID_4_" x="667.259" y="168.809" fill="url(#XMLID_12_)" width="19.883" height="10.358"/>
	
		<linearGradient id="XMLID_13_" gradientUnits="userSpaceOnUse" x1="1338.7551" y1="796.5054" x2="1338.7551" y2="377.5795" gradientTransform="matrix(0.5953 0 0 -0.5953 0.0366 623.7396)">
		<stop  offset="0" style="stop-color:#1EBF5E"/>
		<stop  offset="1" style="stop-color:#00903A"/>
	</linearGradient>
	<polygon id="XMLID_3_" fill="url(#XMLID_13_)" points="768.398,337.333 810.96,294.771 768.398,252.208 775.659,244.886 
		825.544,294.771 775.659,344.656 	"/>
	
		<linearGradient id="XMLID_14_" gradientUnits="userSpaceOnUse" x1="1064.8547" y1="796.5054" x2="1064.8547" y2="377.5795" gradientTransform="matrix(0.5953 0 0 -0.5953 0.0366 623.7396)">
		<stop  offset="0" style="stop-color:#1EBF5E"/>
		<stop  offset="1" style="stop-color:#00903A"/>
	</linearGradient>
	<polygon id="XMLID_2_" fill="url(#XMLID_14_)" points="605.351,294.771 655.236,244.886 662.497,252.208 619.935,294.771 
		662.497,337.333 655.236,344.656 	"/>
	
		<linearGradient id="XMLID_15_" gradientUnits="userSpaceOnUse" x1="1201.8049" y1="796.5044" x2="1201.8049" y2="377.5797" gradientTransform="matrix(0.5953 0 0 -0.5953 0.0366 623.7396)">
		<stop  offset="0" style="stop-color:#1EBF5E"/>
		<stop  offset="1" style="stop-color:#00903A"/>
	</linearGradient>
	<polygon id="XMLID_1_" fill="url(#XMLID_15_)" points="684.761,342.572 737.085,246.017 746.134,250.958 693.868,347.513 	"/>
</g>
</svg>
