<?xml version="1.0" encoding="utf-8"?>
<!-- Generator: Adobe Illustrator 16.0.0, SVG Export Plug-In . SVG Version: 6.00 Build 0)  -->
<!DOCTYPE svg PUBLIC "-//W3C//DTD SVG 1.1//EN" "http://www.w3.org/Graphics/SVG/1.1/DTD/svg11.dtd">
<svg version="1.1" id="图层_1" xmlns="http://www.w3.org/2000/svg" xmlns:xlink="http://www.w3.org/1999/xlink" x="0px" y="0px"
	 width="404.98px" height="349.482px" viewBox="105.24 99.551 404.98 349.482"
	 enable-background="new 105.24 99.551 404.98 349.482" xml:space="preserve">
<g>
	<g>
		<path fill="#82C89B" d="M42.716,243.542h-46.61c-5.239-50.896-60.48-91.137-127.629-91.137c-10.357,0-20.478,0.774-30.181,2.381
			c-2.977-3.988-6.071-7.441-9.286-10.477c-0.536-0.477-1.071-0.953-1.548-1.429c-0.298-0.298-0.595-0.536-0.893-0.833
			c-28.812-25.418-62.98-16.37-63.457-16.251l-3.69,1.012l-1.548,0.357l4.286,11.072l15.477,41.074
			c-15.596,11.727-26.668,27.025-32.383,44.646h-25.24v63.576h26.014c8.394,25.299,27.502,38.872,42.444,47.027v45.896h48.872
			v-32.026c8.811,1.369,19.704,2.083,31.431,2.083c8.394,0,15.001-0.655,22.323-1.846v31.729h48.872v-46.372
			c34.824-17.978,55.719-47.861,56.492-80.78H4.32c-0.834,1.905-1.251,3.988-1.251,6.191c0,8.75,7.084,15.834,15.835,15.834
			s15.834-7.084,15.834-15.834c0-2.203-0.476-4.286-1.25-6.191h9.168L42.716,243.542L42.716,243.542z M18.964,265.568
			c-3.334,0-6.072-2.738-6.072-6.072s2.738-6.072,6.072-6.072c3.333,0,6.071,2.738,6.071,6.072
			C25.035,262.889,22.297,265.568,18.964,265.568z M-66.995,326.703l-2.738,1.31v42.682H-99.08v-33.633l-5.774,1.072
			c-9.465,1.726-16.489,2.679-26.371,2.679c-13.87,0-26.371-1.012-35.359-2.917l-5.894-1.25v34.109h-29.348v-42.027l-2.619-1.369
			c-22.739-11.905-35.836-26.49-41.313-45.956l-1.012-3.572h-23.573v-43.991h22.859l1.012-3.571
			c4.881-17.621,15.774-32.86,31.49-44.17l4.584-3.274l-18.395-48.099l-0.119-0.238c10.001-1.072,31.669-0.953,50.183,15.954
			c0.119,0.119,0.238,0.179,0.297,0.297l0.06,0.06c6.489,6.191,12.68,14.525,17.978,25.657c0.417,0.952,0.894,1.905,1.31,2.917l0,0
			c0.298,0.655,0.596,1.31,0.894,1.964l9.048-3.75c-0.298-0.714-0.595-1.31-0.893-1.964l0,0c0-0.06-0.06-0.119-0.06-0.179
			c-0.655-1.488-1.31-2.976-2.024-4.405c-1.19-2.56-2.44-5-3.75-7.263c7.857-1.071,16.013-1.607,24.287-1.607
			c65.243,0,118.342,40.062,118.342,89.292C-13.241,282.117-33.302,310.273-66.995,326.703z"/>
	</g>
	<path fill="#82C89B" d="M-119.975,188.777c20.239,1.905,38.217,7.62,53.933,16.251l3.393-9.167
		c-16.847-9.346-34.467-14.823-56.016-16.906L-119.975,188.777z"/>
</g>
<g>
	
		<linearGradient id="XMLID_8_" gradientUnits="userSpaceOnUse" x1="518.5676" y1="796.3286" x2="518.5676" y2="377.73" gradientTransform="matrix(0.5953 0 0 -0.5953 0.0366 623.7396)">
		<stop  offset="0" style="stop-color:#1EBF5E"/>
		<stop  offset="1" style="stop-color:#00903A"/>
	</linearGradient>
	<path id="XMLID_10_" fill="url(#XMLID_8_)" d="M155.505,398.884V149.701h306.449v249.184H155.505L155.505,398.884z
		 M451.597,388.468V198.216H165.802v190.252H451.597L451.597,388.468z M451.597,187.858v-27.859H165.802v27.859H451.597z"/>
	
		<linearGradient id="XMLID_9_" gradientUnits="userSpaceOnUse" x1="325.9661" y1="796.5044" x2="325.966" y2="377.581" gradientTransform="matrix(0.5953 0 0 -0.5953 0.0366 623.7396)">
		<stop  offset="0" style="stop-color:#1EBF5E"/>
		<stop  offset="1" style="stop-color:#00903A"/>
	</linearGradient>
	<rect id="XMLID_6_" x="184.138" y="168.809" fill="url(#XMLID_9_)" width="19.881" height="10.358"/>
	
		<linearGradient id="XMLID_11_" gradientUnits="userSpaceOnUse" x1="390.1682" y1="796.5044" x2="390.1682" y2="377.581" gradientTransform="matrix(0.5953 0 0 -0.5953 0.0366 623.7396)">
		<stop  offset="0" style="stop-color:#1EBF5E"/>
		<stop  offset="1" style="stop-color:#00903A"/>
	</linearGradient>
	<rect id="XMLID_5_" x="222.355" y="168.809" fill="url(#XMLID_11_)" width="19.883" height="10.358"/>
	
		<linearGradient id="XMLID_12_" gradientUnits="userSpaceOnUse" x1="454.2659" y1="796.5044" x2="454.2658" y2="377.581" gradientTransform="matrix(0.5953 0 0 -0.5953 0.0366 623.7396)">
		<stop  offset="0" style="stop-color:#1EBF5E"/>
		<stop  offset="1" style="stop-color:#00903A"/>
	</linearGradient>
	<rect id="XMLID_4_" x="260.511" y="168.809" fill="url(#XMLID_12_)" width="19.883" height="10.358"/>
	
		<linearGradient id="XMLID_13_" gradientUnits="userSpaceOnUse" x1="655.4661" y1="796.5054" x2="655.4661" y2="377.5795" gradientTransform="matrix(0.5953 0 0 -0.5953 0.0366 623.7396)">
		<stop  offset="0" style="stop-color:#1EBF5E"/>
		<stop  offset="1" style="stop-color:#00903A"/>
	</linearGradient>
	<polygon id="XMLID_3_" fill="url(#XMLID_13_)" points="361.65,337.333 404.212,294.771 361.65,252.208 368.911,244.886 
		418.796,294.771 368.911,344.656 	"/>
	
		<linearGradient id="XMLID_14_" gradientUnits="userSpaceOnUse" x1="381.5676" y1="796.5054" x2="381.5676" y2="377.5795" gradientTransform="matrix(0.5953 0 0 -0.5953 0.0366 623.7396)">
		<stop  offset="0" style="stop-color:#1EBF5E"/>
		<stop  offset="1" style="stop-color:#00903A"/>
	</linearGradient>
	<polygon id="XMLID_2_" fill="url(#XMLID_14_)" points="198.603,294.771 248.488,244.886 255.749,252.208 213.187,294.771 
		255.749,337.333 248.488,344.656 	"/>
	
		<linearGradient id="XMLID_15_" gradientUnits="userSpaceOnUse" x1="518.5168" y1="796.5044" x2="518.5168" y2="377.5797" gradientTransform="matrix(0.5953 0 0 -0.5953 0.0366 623.7396)">
		<stop  offset="0" style="stop-color:#1EBF5E"/>
		<stop  offset="1" style="stop-color:#00903A"/>
	</linearGradient>
	<polygon id="XMLID_1_" fill="url(#XMLID_15_)" points="278.013,342.572 330.337,246.017 339.386,250.958 287.12,347.513 	"/>
</g>
</svg>
