<?xml version="1.0" encoding="utf-8"?>
<!-- Generator: Adobe Illustrator 16.0.0, SVG Export Plug-In . SVG Version: 6.00 Build 0)  -->
<!DOCTYPE svg PUBLIC "-//W3C//DTD SVG 1.1//EN" "http://www.w3.org/Graphics/SVG/1.1/DTD/svg11.dtd">
<svg version="1.1" id="图层_1" xmlns="http://www.w3.org/2000/svg" xmlns:xlink="http://www.w3.org/1999/xlink" x="0px" y="0px"
	 width="404.98px" height="349.482px" viewBox="105.24 99.551 404.98 349.482"
	 enable-background="new 105.24 99.551 404.98 349.482" xml:space="preserve">
<linearGradient id="SVGID_1_" gradientUnits="userSpaceOnUse" x1="513.2834" y1="831.1587" x2="513.2834" y2="346.2603" gradientTransform="matrix(0.5953 0 0 -0.5953 0.0366 623.7396)">
	<stop  offset="0" style="stop-color:#1EBF5E"/>
	<stop  offset="1" style="stop-color:#00903A"/>
</linearGradient>
<path fill="url(#SVGID_1_)" d="M433.573,417.618c-3.035,0-6.012-0.178-8.453-0.357c-1.904-0.119-3.273-0.178-4.166-0.178
	c-1.668,0-23.098-0.061-23.098-0.061c-58.873-0.178-215.252-0.713-221.623-0.951c-1.309-0.061-2.5-0.061-3.631-0.061
	c-3.451,0-6.488,0-9.047-1.488c-5.24-2.857-4.645-9.285-4.346-12.023l0.178-1.846c2.322-23.752,5.596-49.111,12.68-57.027
	c7.857-8.752,37.621-24.705,63.934-38.754l3.869-2.084c4.404-2.32,8.572-4.582,12.262-6.607
	c4.822-7.143,13.156-12.322,16.729-14.523c0.059-0.061,0.178-0.119,0.297-0.18c0.061-0.059,0.119-0.059,0.18-0.119
	c0.416-1.846,0.713-6.191,0.654-10.357c-1.25-2.798-7.68-17.382-9.346-26.431c-3.691-3.095-10.418-8.929-11.43-25.954
	c-0.357-6.786,3.215-12.382,4.762-14.525c-0.178-2.381-1.488-8.215-1.965-10.12c-0.773-3.393-1.189-5.357-1.309-6.667
	c-0.654-12.917,5.178-27.145,16.131-38.932c11.072-11.965,25.063-19.049,38.455-19.406h1.072c12.918,0,23.633,6.548,32.383,12.977
	c8.572,6.25,15.061,16.608,18.395,29.168c2.738,10.537,2.977,21.668,0.654,31.372c6.549,6.965,3.869,19.406,2.918,24.109
	c-1.668,7.977-8.275,15.18-11.072,17.977c-2.262,13.096-6.965,21.49-8.871,24.466c-0.119,5.298,0.061,10.537,0.418,12.74
	c2.678,1.666,10.654,6.547,15.119,15.061c12.502,7.678,30.063,17.203,44.17,24.822l1.488,0.834
	c15.537,8.393,28.932,15.656,34.109,19.525c5.119,3.809,7.561,14.822,10.834,36.609c0.537,3.572,1.072,7.441,1.549,9.168
	c0.119,0.535,0.297,1.131,0.477,1.904c3.273,12.68,3.928,17.799,2.5,20.895C448.336,416.903,439.764,417.618,433.573,417.618z
	 M168.793,406.129c0.893,0.119,2.439,0.119,3.869,0.119c1.189,0,2.5,0,3.928,0.059c7.68,0.299,242.16,1.012,244.363,1.012
	c1.07,0,2.381,0.061,3.869,0.18l0.893,0.059c2.5,0.18,5.18,0.357,7.857,0.357c6.488,0,8.395-1.131,8.811-1.428
	c0.059-2.025-0.953-7.025-2.916-14.467l-0.477-2.023c-0.537-2.203-1.131-6.131-1.668-10.061l-0.059-0.238
	c-1.131-7.439-4.049-27.322-7.084-30.06c-4.643-3.453-18.275-10.895-34.348-19.525l-1.072-0.596
	c-15.299-8.273-32.621-17.68-44.824-25.299l-1.25-0.773l-0.596-1.311c-3.154-6.904-10.119-11.072-12.381-12.441l-0.18-0.119
	c-1.012-0.654-1.725-1.07-2.32-1.904c-0.773-1.012-2.738-3.75-2.143-20.538l0.059-1.548l0.953-1.25
	c0.059-0.06,5.951-8.155,8.215-23.097l0.238-1.727l1.309-1.19c2.203-1.964,8.156-8.394,9.287-13.989
	c1.904-9.107,1.428-14.524-1.369-16.191l-3.275-1.964l1.131-3.691c6.43-20.597-2.381-44.051-14.643-52.98
	c-7.5-5.477-16.49-11.072-26.668-11.072h-0.715c-10.656,0.298-22.502,6.37-31.609,16.311c-8.988,9.763-14.049,21.668-13.514,31.847
	c0.061,0.595,0.596,3.096,1.072,5c2.5,10.774,3.154,14.822,0.715,17.62c-0.061,0.06-3.514,4.286-3.275,8.691
	c0.775,12.858,5.238,16.728,8.156,19.228c0.535,0.476,1.07,0.952,1.488,1.369l1.25,1.25l0.178,1.727
	c0.715,6.548,6.906,21.251,9.227,26.371l0.357,0.893l0.061,1.012c0.178,6.192-0.119,14.288-2.5,17.561
	c-0.596,0.834-1.25,1.309-2.68,2.203l-0.535,0.357l-0.299,0.178c-3.451,2.203-10.715,6.727-14.107,12.322l-0.654,0.953l-1.191,0.654
	c-3.096,1.666-6.428,3.453-9.941,5.357l-1.666,0.893c-1.846,1.012-3.75,2.023-5.654,3.035c-23.039,12.324-54.529,29.17-61.314,36.67
	c-2.68,2.977-6.607,14.287-10.18,51.492l-0.178,1.846C168.733,404.938,168.733,405.772,168.793,406.129z"/>
</svg>
