<?xml version="1.0" encoding="utf-8"?>
<!-- Generator: Adobe Illustrator 16.0.0, SVG Export Plug-In . SVG Version: 6.00 Build 0)  -->
<!DOCTYPE svg PUBLIC "-//W3C//DTD SVG 1.1//EN" "http://www.w3.org/Graphics/SVG/1.1/DTD/svg11.dtd">
<svg version="1.1" id="图层_1" xmlns="http://www.w3.org/2000/svg" xmlns:xlink="http://www.w3.org/1999/xlink" x="0px" y="0px"
	 width="404.98px" height="349.482px" viewBox="0 0 404.98 349.482" enable-background="new 0 0 404.98 349.482"
	 xml:space="preserve">
<circle fill="#6DB33F" cx="202.533" cy="174.741" r="159"/>
<g>
	<path fill-rule="evenodd" clip-rule="evenodd" fill="#FFFFFF" d="M173.601,142.188c0,2.858,0,5.402,0,8.334
		c-3.096,0-6.204,0.303-9.227-0.077c-3.681-0.462-5.485,1.015-7.053,4.235c-3.427,7.042-7.313,13.859-11.005,20.771
		c-0.395,0.74-0.742,1.507-1.263,2.569c38.46,0,76.653,0,115.088,0c-0.432-0.908-0.749-1.68-1.15-2.405
		c-4.319-7.809-8.679-15.594-12.951-23.428c-0.689-1.263-1.483-1.743-2.914-1.707c-3.721,0.093-7.447,0.031-11.353,0.031
		c0-2.775,0-5.432,0-8.327c5.552,0,11.047-0.039,16.539,0.057c0.582,0.01,1.347,0.685,1.699,1.253
		c8.628,13.919,17.226,27.857,25.767,41.829c0.528,0.863,0.777,2.033,0.78,3.061c0.042,24.935,0.045,49.868,0.001,74.804
		c-0.004,1.52-0.236,3.119-0.749,4.542c-1.078,2.989-3.548,3.79-6.527,3.784c-16.234-0.036-32.47-0.015-48.704-0.014
		c-27.419,0-54.838,0-82.258-0.001c-1.009,0-2.02,0.017-3.029-0.018c-4.746-0.153-7.638-3.085-7.641-7.832
		c-0.014-19.188-0.004-38.374-0.004-57.56c0-5.825-0.069-11.652,0.049-17.477c0.026-1.307,0.436-2.768,1.124-3.875
		c8.479-13.648,17.062-27.23,25.556-40.869c0.804-1.292,1.661-1.749,3.169-1.72C162.813,142.248,168.087,142.188,173.601,142.188z"
		/>
	<path fill-rule="evenodd" clip-rule="evenodd" fill="#FFFFFF" d="M224.036,127.188c0,1.484,0,2.634,0,3.783
		c0,9.784,0.005,19.567-0.004,29.351c-0.003,3.506-1.073,4.567-4.591,4.569c-11.182,0.006-22.363,0.008-33.544-0.001
		c-3.606-0.003-4.656-1.084-4.658-4.751c-0.005-10.016-0.002-20.033-0.002-30.049c0-0.845,0-1.689,0-2.902
		c-2.921,0-5.685-0.058-8.444,0.016c-2.775,0.074-4.851-0.996-6.005-3.529c-1.115-2.449-0.501-4.656,1.167-6.691
		c9.841-12.01,19.649-24.045,29.495-36.05c3.236-3.947,7.118-3.949,10.332-0.03c9.796,11.946,19.556,23.922,29.364,35.857
		c1.785,2.172,2.518,4.489,1.278,7.093c-1.25,2.631-3.534,3.474-6.353,3.357C229.523,127.106,226.968,127.188,224.036,127.188z"/>
	<path fill-rule="evenodd" clip-rule="evenodd" fill="#FFFFFF" d="M150.855,142.022c-6.159,9.921-11.962,19.273-17.77,28.625
		c-3.233,5.206-6.41,10.451-9.762,15.58c-0.695,1.063-1.933,2.051-3.13,2.46c-9.976,3.396-20.003,6.641-30.007,9.954
		c-1.491,0.495-2.909,0.783-3.96-0.74c-1.007-1.459-0.159-2.616,0.708-3.775c10.547-14.113,21.077-28.238,31.645-42.334
		c0.528-0.703,1.289-1.478,2.084-1.696C130.51,147.401,140.384,144.804,150.855,142.022z"/>
	<path fill-rule="evenodd" clip-rule="evenodd" fill="#FFFFFF" d="M254.796,142.101c6.129,1.625,11.946,3.167,17.764,4.709
		c3.596,0.953,7.226,1.794,10.766,2.921c1.299,0.414,2.708,1.259,3.514,2.326c10.432,13.806,20.766,27.686,31.114,41.554
		c0.507,0.68,1.19,1.385,1.309,2.153c0.124,0.805-0.067,2.075-0.607,2.459c-0.758,0.539-2.055,0.796-2.962,0.56
		c-2.768-0.72-5.459-1.736-8.181-2.634c-7.505-2.472-15.026-4.898-22.502-7.459c-1.08-0.37-2.272-1.168-2.861-2.111
		c-8.953-14.344-17.815-28.744-26.693-43.134C255.26,143.13,255.126,142.779,254.796,142.101z"/>
</g>
</svg>
