<?xml version="1.0" encoding="utf-8"?>
<!-- Generator: Adobe Illustrator 16.0.0, SVG Export Plug-In . SVG Version: 6.00 Build 0)  -->
<!DOCTYPE svg PUBLIC "-//W3C//DTD SVG 1.1//EN" "http://www.w3.org/Graphics/SVG/1.1/DTD/svg11.dtd">
<svg version="1.1" id="图层_1" xmlns="http://www.w3.org/2000/svg" xmlns:xlink="http://www.w3.org/1999/xlink" x="0px" y="0px"
	 width="404.98px" height="349.482px" viewBox="0 0 404.98 349.482" enable-background="new 0 0 404.98 349.482"
	 xml:space="preserve">
<circle fill="#08B7A1" cx="202.533" cy="174.741" r="159"/>
<path fill="#FFFFFF" d="M202.534,111.544c-5.91,0-11.629,0.811-17.055,2.328c-26.619,7.442-46.143,31.875-46.143,60.868
	c0,34.903,28.294,63.197,63.198,63.197c34.902,0,63.194-28.294,63.194-63.197C265.728,139.838,237.436,111.544,202.534,111.544z
	 M202.534,217.588c-23.666,0-42.849-19.184-42.849-42.848c0-6.33,1.373-12.339,3.837-17.747c5.202-11.417,15.268-20.148,27.55-23.55
	c3.648-1.01,7.492-1.549,11.461-1.549c23.664,0,42.845,19.183,42.845,42.847C245.38,198.404,226.198,217.588,202.534,217.588z"/>
<path fill="#FFFFFF" d="M202.533,174.741"/>
<g>
	<g>
		<rect x="132.997" y="109.137" fill="#08B7A1" width="54.045" height="48.92"/>
		<g>
			<path fill="#FFFFFF" d="M113.567,74.58c-5.5,0-10,4.5-10,10v76.678c0,5.5,4.5,10,10,10h77.069c5.5,0,10-4.5,10-10V84.581
				c0-5.5-4.5-10-10-10H113.567z M178.392,138.761c0,5.5-4.5,10-10,10h-35.107c-5.5,0-10-4.5-10-10v-35.107c0-5.5,4.5-10,10-10
				h35.107c5.5,0,10,4.5,10,10V138.761z"/>
		</g>
	</g>
	<g>
		<rect x="211.268" y="187.246" fill="#08B7A1" width="54.046" height="48.92"/>
		<g>
			<path fill="#FFFFFF" d="M214.43,178.222c-5.501,0-10.001,4.5-10.001,10.001v76.678c0,5.501,4.5,10.001,10.001,10.001h77.068
				c5.501,0,10.001-4.5,10.001-10.001v-76.678c0-5.501-4.5-10.001-10.001-10.001H214.43z M279.255,242.403
				c0,5.501-4.5,10.001-10.001,10.001h-35.106c-5.501,0-10.001-4.5-10.001-10.001v-35.106c0-5.501,4.5-10.001,10.001-10.001h35.106
				c5.501,0,10.001,4.5,10.001,10.001V242.403z"/>
		</g>
	</g>
</g>
</svg>
