<?xml version="1.0" encoding="utf-8"?>
<!-- Generator: Adobe Illustrator 16.0.0, SVG Export Plug-In . SVG Version: 6.00 Build 0)  -->
<!DOCTYPE svg PUBLIC "-//W3C//DTD SVG 1.1//EN" "http://www.w3.org/Graphics/SVG/1.1/DTD/svg11.dtd">
<svg version="1.1" id="图层_1" xmlns="http://www.w3.org/2000/svg" xmlns:xlink="http://www.w3.org/1999/xlink" x="0px" y="0px"
	 width="404.98px" height="349.482px" viewBox="0 0 404.98 349.482" enable-background="new 0 0 404.98 349.482"
	 xml:space="preserve">
<circle fill="#0673BA" cx="202.533" cy="174.741" r="159"/>
<g>
	<path fill-rule="evenodd" clip-rule="evenodd" fill="#FFFFFF" d="M257.121,132.939c21.321,6.56,41.963,12.912,63.131,19.425
		c-10.408,18.827-20.659,37.371-31.272,56.568c-2.885-6.524-5.471-12.37-8.214-18.57c-2.951,1.641-5.775,3.139-8.529,4.757
		c-23.39,13.746-37.158,34.329-43.067,60.536c-2.488,11.046-3.871,22.211-4.155,33.521c-0.077,3.082-0.195,3.229-3.302,3.232
		c-12.001,0.006-24.002,0.007-36.002-0.002c-3.013-0.001-3.071-0.024-2.959-3.13c0.834-22.983,3.877-45.552,12.679-67.029
		c11.464-27.971,30.737-48.976,56.964-63.76c3.348-1.885,6.706-3.762,10.136-5.491c1.601-0.807,2.087-1.545,1.287-3.346
		c-2.024-4.561-3.815-9.226-5.688-13.853C257.847,135.1,257.626,134.382,257.121,132.939z"/>
	<path fill-rule="evenodd" clip-rule="evenodd" fill="#FFFFFF" d="M171.099,237.616c-9.512-21.767-25.1-36.898-46.077-47.166
		c-2.633,5.995-5.206,11.852-8.006,18.227c-0.727-1.105-1.199-1.747-1.591-2.433c-9.822-17.141-19.629-34.29-29.454-51.429
		c-1.793-3.128-1.7-3.373,1.691-4.346c19.248-5.52,38.492-11.06,57.738-16.585c0.924-0.265,1.865-0.471,3.277-0.824
		c-0.42,1.21-0.65,1.986-0.955,2.73c-1.922,4.691-3.856,9.377-5.797,14.06c-0.402,0.971-0.782,1.86,0.548,2.49
		c16.238,7.696,28.64,20.592,42.56,31.429c1.152,0.897,2.271,1.842,3.377,2.795c2.692,2.318,3.182,4.271,1.731,7.559
		c-2.356,5.341-4.871,10.612-7.176,15.976c-3.728,8.68-7.338,17.412-11.009,26.119C171.821,236.54,171.588,236.825,171.099,237.616z
		"/>
	<path fill-rule="evenodd" clip-rule="evenodd" fill="#FFFFFF" d="M158.991,107.963c14.533-17.166,28.658-33.849,43.089-50.893
		c14.35,16.942,28.512,33.663,43.078,50.859c-1.443,0.137-2.24,0.276-3.034,0.279c-4.923,0.02-9.847,0.01-14.77,0.011
		c-3.667,0.001-3.665,0.002-3.667,3.549c-0.007,13.308-0.06,26.616,0.015,39.924c0.018,3.142-0.907,5.603-3.294,7.722
		c-5.466,4.846-10.836,9.801-16.158,14.807c-1.538,1.446-2.669,1.583-4.269,0.079c-5.319-5.006-10.69-9.962-16.155-14.81
		c-2.447-2.169-3.421-4.723-3.41-7.93c0.05-13.539-0.043-27.077,0.032-40.615c0.011-2.096-0.538-2.826-2.694-2.77
		c-5.228,0.136-10.46,0.052-15.692,0.035C161.262,108.207,160.462,108.086,158.991,107.963z"/>
</g>
</svg>
