<?xml version="1.0" encoding="utf-8"?>
<!-- Generator: Adobe Illustrator 16.0.0, SVG Export Plug-In . SVG Version: 6.00 Build 0)  -->
<!DOCTYPE svg PUBLIC "-//W3C//DTD SVG 1.1//EN" "http://www.w3.org/Graphics/SVG/1.1/DTD/svg11.dtd">
<svg version="1.1" id="图层_1" xmlns="http://www.w3.org/2000/svg" xmlns:xlink="http://www.w3.org/1999/xlink" x="0px" y="0px"
	 width="404.98px" height="349.482px" viewBox="0 0 404.98 349.482" enable-background="new 0 0 404.98 349.482"
	 xml:space="preserve">
<circle fill="#E86542" cx="202.49" cy="174.741" r="159"/>
<path fill="#FFFFFF" d="M185.552,99.386c0,0-28.28-2.793-45.39,31.076c0,0-22.35-14.315-36.315,3.143
	c-13.965,17.458-0.35,31.424,0,33.17c0,0-34.567,4.54-33.17,40.155c1.397,35.614,31.075,37.359,31.075,37.359h83.8V99.386z"/>
<rect x="203.011" y="99.329" fill="#FFFFFF" width="106.145" height="144.959"/>
<circle fill="none" stroke="#E86542" stroke-width="3" stroke-miterlimit="10" cx="256.173" cy="132.296" r="21.823"/>
<path fill="#E86542" d="M267.345,132.296c0,6.17-5.002,11.172-11.172,11.172c-6.174,0-11.174-5.002-11.174-11.172
	c0-6.172,5-11.175,11.174-11.175C262.344,121.121,267.345,126.124,267.345,132.296z"/>
<rect x="227.103" y="169.219" fill="#E86542" width="57.264" height="5.935"/>
<rect x="227.103" y="189.819" fill="#E86542" width="57.264" height="5.936"/>
<rect x="227.103" y="210.769" fill="#E86542" width="57.264" height="5.936"/>
</svg>
