<?xml version="1.0" encoding="utf-8"?>
<!-- Generator: Adobe Illustrator 19.0.0, SVG Export Plug-In . SVG Version: 6.00 Build 0)  -->
<svg version="1.1" id="图层_1" xmlns="http://www.w3.org/2000/svg" xmlns:xlink="http://www.w3.org/1999/xlink" x="0px" y="0px"
	 viewBox="0 0 1000 1000" style="enable-background:new 0 0 1000 1000;" xml:space="preserve">
<style type="text/css">
	.st0{fill:url(#XMLID_2_);}
	.st1{fill:url(#XMLID_3_);}
	.st2{fill:url(#XMLID_4_);}
	.st3{fill:url(#XMLID_5_);}
	.st4{fill:url(#XMLID_6_);}
	.st5{fill:url(#XMLID_7_);}
</style>
<g id="XMLID_834_">
	<linearGradient id="XMLID_2_" gradientUnits="userSpaceOnUse" x1="499.9982" y1="149.6002" x2="499.9982" y2="855.4427">
		<stop  offset="0" style="stop-color:#5DB8FF"/>
		<stop  offset="1" style="stop-color:#0076D1"/>
	</linearGradient>
	<path id="XMLID_837_" class="st0" d="M650.9,280.5c-15.9-22-37.6-40.3-62.6-53.2l38.7-60.9l-21.1-13.4L565,217.2
		c-20.7-7.3-42.5-11-65-11c-22.5,0-44.3,3.7-65,11l-40.9-64.3L373,166.3l38.7,60.9c-25.1,12.9-46.7,31.2-62.6,53.2
		c-17.1,23.6-27.4,51-29.7,79.3l-1.1,13.5h363.3l-1.1-13.5C678.2,331.5,668,304.1,650.9,280.5z M346.2,348.3
		c8-42.4,37-79.2,79.4-100.1l9.6-4.3c20.4-8.4,42.2-12.7,64.8-12.7c22.6,0,44.4,4.3,64.8,12.7l9.6,4.3
		c42.5,20.9,71.4,57.6,79.4,100.1H346.2z"/>
	<linearGradient id="XMLID_3_" gradientUnits="userSpaceOnUse" x1="252.5387" y1="149.6002" x2="252.5387" y2="855.4427">
		<stop  offset="0" style="stop-color:#5DB8FF"/>
		<stop  offset="1" style="stop-color:#0076D1"/>
	</linearGradient>
	<path id="XMLID_840_" class="st1" d="M252.5,372.8c-28.7,0-52,23.3-52,52v159.8c0,28.7,23.3,52,52,52c28.7,0,52-23.3,52-52V424.8
		C304.6,396.1,281.2,372.8,252.5,372.8z M279.6,584.7c0,14.9-12.1,27-27,27c-14.9,0-27-12.1-27-27V424.8c0-14.9,12.1-27,27-27
		c14.9,0,27,12.1,27,27V584.7z"/>
	<linearGradient id="XMLID_4_" gradientUnits="userSpaceOnUse" x1="500.0016" y1="149.6002" x2="500.0016" y2="855.4427">
		<stop  offset="0" style="stop-color:#5DB8FF"/>
		<stop  offset="1" style="stop-color:#0076D1"/>
	</linearGradient>
	<path id="XMLID_843_" class="st2" d="M318.4,675.2c0,24,19.5,43.5,43.5,43.5h16.2v76.3c0,28.7,23.3,52,52,52c28.7,0,52-23.3,52-52
		v-76.3h35.6v76.3c0,28.7,23.3,52,52,52c28.7,0,52-23.3,52-52v-76.3H638c24,0,43.6-19.5,43.6-43.5V382.1H318.4V675.2z M343.4,407.1
		h313.1v268.1c0,10.2-8.3,18.5-18.6,18.5h-41.2v101.3c0,14.9-12.1,27-27,27c-14.9,0-27-12.1-27-27V693.8h-85.6v101.3
		c0,14.9-12.1,27-27,27s-27-12.1-27-27V693.8H362c-10.2,0-18.5-8.3-18.5-18.5V407.1z"/>
	<linearGradient id="XMLID_5_" gradientUnits="userSpaceOnUse" x1="747.4625" y1="149.6002" x2="747.4625" y2="855.4427">
		<stop  offset="0" style="stop-color:#5DB8FF"/>
		<stop  offset="1" style="stop-color:#0076D1"/>
	</linearGradient>
	<path id="XMLID_846_" class="st3" d="M747.5,372.8c-28.7,0-52,23.3-52,52v159.8c0,28.7,23.3,52,52,52s52-23.3,52-52V424.8
		C799.5,396.1,776.1,372.8,747.5,372.8z M774.5,584.7c0,14.9-12.1,27-27,27c-14.9,0-27-12.1-27-27V424.8c0-14.9,12.1-27,27-27
		c14.9,0,27,12.1,27,27V584.7z"/>
	<linearGradient id="XMLID_6_" gradientUnits="userSpaceOnUse" x1="425.9979" y1="149.6002" x2="425.9979" y2="855.4427">
		<stop  offset="0" style="stop-color:#5DB8FF"/>
		<stop  offset="1" style="stop-color:#0076D1"/>
	</linearGradient>
	<path id="XMLID_847_" class="st4" d="M426,272.6c-10.8,0-19.6,8.8-19.6,19.6c0,10.8,8.8,19.6,19.6,19.6c10.8,0,19.6-8.8,19.6-19.6
		C445.6,281.4,436.8,272.6,426,272.6z"/>
	<linearGradient id="XMLID_7_" gradientUnits="userSpaceOnUse" x1="574.0018" y1="149.6002" x2="574.0018" y2="855.4427">
		<stop  offset="0" style="stop-color:#5DB8FF"/>
		<stop  offset="1" style="stop-color:#0076D1"/>
	</linearGradient>
	<path id="XMLID_848_" class="st5" d="M574,272.6c-10.8,0-19.6,8.8-19.6,19.6c0,10.8,8.8,19.6,19.6,19.6c10.8,0,19.6-8.8,19.6-19.6
		S584.8,272.6,574,272.6z"/>
</g>
</svg>
