<?xml version="1.0" encoding="utf-8"?>
<!-- Generator: Adobe Illustrator 19.0.0, SVG Export Plug-In . SVG Version: 6.00 Build 0)  -->
<svg version="1.1" id="图层_1" xmlns="http://www.w3.org/2000/svg" xmlns:xlink="http://www.w3.org/1999/xlink" x="0px" y="0px"
	 viewBox="0 0 268 150" style="enable-background:new 0 0 268 150;" xml:space="preserve">
<style type="text/css">
	.st0{fill:url(#SVGID_1_);}
</style>
<linearGradient id="SVGID_1_" gradientUnits="userSpaceOnUse" x1="134" y1="118.6954" x2="134" y2="31.3046">
	<stop  offset="0" style="stop-color:#A5A5A5"/>
	<stop  offset="1" style="stop-color:#C3C4C4"/>
</linearGradient>
<path class="st0" d="M147.9,45.3c3.3-3.7,5.5-8.8,4.9-14c-4.8,0.2-10.5,2.9-13.9,6.6c-3.1,3.3-5.7,8.5-5,13.5
	C139.2,51.8,144.6,48.9,147.9,45.3z M159.8,77.7c-0.1-11.1,9.8-16.4,10.2-16.6c-5.6-7.5-14.2-8.5-17.3-8.7c-7.4-0.7-14.4,4-18.1,4
	c-3.7,0-9.5-3.9-15.6-3.8c-8,0.1-15.4,4.3-19.6,11c-8.3,13.4-2.1,33.2,6,44c4,5.3,8.7,11.3,14.9,11.1c6-0.2,8.3-3.6,15.5-3.6
	c7.2,0,9.3,3.6,15.6,3.5c6.4-0.1,10.5-5.4,14.5-10.7c4.6-6.2,6.4-12.1,6.6-12.4C172.4,95.4,159.9,91,159.8,77.7z"/>
</svg>
