<?xml version="1.0" encoding="utf-8"?>
<!-- Generator: Adobe Illustrator 19.0.0, SVG Export Plug-In . SVG Version: 6.00 Build 0)  -->
<svg version="1.1" id="图层_1" xmlns="http://www.w3.org/2000/svg" xmlns:xlink="http://www.w3.org/1999/xlink" x="0px" y="0px"
	 viewBox="71 -75 318.5 300" style="enable-background:new 71 -75 318.5 300;" xml:space="preserve">
<style type="text/css">
	.st0{fill:#052E1F;}
</style>
<g id="XMLID_729_">
	<g id="XMLID_730_">
		<path id="XMLID_744_" class="st0" d="M108.7,19.1h17.5v81c-9,1.7-15.6,2.4-22.7,2.4c-21.4,0-32.5-9.7-32.5-28.2
			c0-17.8,11.8-29.4,30.1-29.4c2.8,0,5,0.2,7.6,0.9V19.1z M108.7,59.9c-2-0.7-3.7-0.9-5.9-0.9c-8.9,0-14,5.5-14,15
			c0,9.3,4.9,14.4,13.9,14.4c1.9,0,3.5-0.1,6-0.5V59.9z"/>
		<path id="XMLID_741_" class="st0" d="M154.1,46.1v40.6c0,14-1,20.7-4.1,26.5c-2.8,5.6-6.6,9.1-14.3,13l-16.3-7.7
			c7.7-3.6,11.5-6.8,13.9-11.7c2.5-5,3.3-10.8,3.3-26V46.1H154.1z M136.6,19.2h17.5v18h-17.5V19.2z"/>
		<path id="XMLID_738_" class="st0" d="M164.6,50.1c7.7-3.6,15.1-5.2,23.2-5.2c9,0,14.9,2.4,17.5,7c1.5,2.6,1.9,6,1.9,13.3v35.6
			c-7.8,1.1-17.7,1.9-25,1.9c-14.7,0-21.3-5.1-21.3-16.5c0-12.3,8.8-18,30.2-19.8v-3.9c0-3.2-1.6-4.3-6-4.3
			c-6.5,0-13.7,1.8-20.6,5.3L164.6,50.1L164.6,50.1z M192,77.9c-11.6,1.1-15.3,3-15.3,7.5c0,3.4,2.2,5,6.9,5c2.6,0,5-0.2,8.4-0.8
			L192,77.9L192,77.9z"/>
		<path id="XMLID_721_" class="st0" d="M215.8,48.9c10.3-2.7,18.9-4,27.5-4c9,0,15.5,2,19.3,6c3.6,3.7,4.8,7.8,4.8,16.6v34.3h-17.5
			V68.2c0-6.7-2.3-9.2-8.5-9.2c-2.4,0-4.5,0.2-8.1,1.2v41.6h-17.5V48.9z"/>
		<path id="XMLID_734_" class="st0" d="M274.2,111.4c6.1,3.2,12.3,4.7,18.8,4.7c11.5,0,16.4-4.7,16.4-15.8c0-0.1,0-0.2,0-0.3
			c-3.4,1.7-6.8,2.4-11.4,2.4c-15.3,0-25.1-10.1-25.1-26.1c0-19.9,14.4-31.1,40-31.1c7.5,0,14.4,0.8,22.8,2.5l-6,12.6
			c-4.7-0.9-0.4-0.1-3.9-0.5v1.8l0.2,7.4l0.1,9.5c0.1,2.4,0.1,4.8,0.2,7.2c0,2.2,0,3.2,0,4.8c0,15-1.2,22-5,27.8
			c-5.5,8.5-14.9,12.7-28.3,12.7c-6.8,0-12.7-1-18.9-3.4L274.2,111.4L274.2,111.4z M308.9,59.1c-0.2,0-0.5,0-0.6,0h-1.3
			c-3.4-0.1-7.4,0.8-10.1,2.5c-4.2,2.4-6.4,6.7-6.4,12.8c0,8.8,4.3,13.8,12,13.8c2.4,0,4.3-0.5,6.6-1.1v-1.3V81c0-2-0.1-4.3-0.1-6.7
			l-0.1-8.1l-0.1-5.8L308.9,59.1L308.9,59.1z"/>
		<path id="XMLID_731_" class="st0" d="M362.8,44.6c17.5,0,28.2,11,28.2,28.9c0,18.3-11.1,29.8-28.9,29.8c-17.5,0-28.3-11-28.3-28.8
			C333.8,56.1,345,44.6,362.8,44.6z M362.5,89.2c6.7,0,10.7-5.6,10.7-15.2c0-9.5-3.9-15.2-10.6-15.2c-6.9,0-10.9,5.6-10.9,15.2
			C351.7,83.6,355.7,89.2,362.5,89.2z"/>
	</g>
</g>
</svg>
