<?xml version="1.0" encoding="utf-8"?>
<!-- Generator: Adobe Illustrator 19.0.0, SVG Export Plug-In . SVG Version: 6.00 Build 0)  -->
<svg version="1.1" id="图层_1" xmlns="http://www.w3.org/2000/svg" xmlns:xlink="http://www.w3.org/1999/xlink" x="0px" y="0px"
	 viewBox="0 0 1000 1000" style="enable-background:new 0 0 1000 1000;" xml:space="preserve">
<style type="text/css">
	.st0{fill:url(#XMLID_2_);}
	.st1{fill:url(#XMLID_3_);}
	.st2{fill:url(#XMLID_4_);}
	.st3{fill:url(#XMLID_5_);}
</style>
<g id="XMLID_860_">
	<linearGradient id="XMLID_2_" gradientUnits="userSpaceOnUse" x1="180.1055" y1="296.1057" x2="180.1055" y2="707.1469">
		<stop  offset="0" style="stop-color:#5DB8FF"/>
		<stop  offset="1" style="stop-color:#0076D1"/>
	</linearGradient>
	<rect id="XMLID_861_" x="167.6" y="391.6" class="st0" width="25" height="308.7"/>
	<linearGradient id="XMLID_3_" gradientUnits="userSpaceOnUse" x1="408.1934" y1="296.1057" x2="408.1934" y2="707.1469">
		<stop  offset="0" style="stop-color:#5DB8FF"/>
		<stop  offset="1" style="stop-color:#0076D1"/>
	</linearGradient>
	<path id="XMLID_864_" class="st1" d="M502.4,346.4c-34.7-32-77.8-36-108-33.6c-7.1-0.3-45.3,0-79.5,31.8
		c-36.4,33.9-54.9,90.3-54.9,167.6c0,72.1,18.3,124.8,54.5,156.8c31.6,27.9,67.8,31.6,84.9,31.6c4.3,0,7.4-0.2,8.9-0.4h15
		c1.8,0.1,45.6-0.2,82.9-37.2c33.5-33.3,50.4-84.6,50.4-152.6C556.5,434.6,538.3,379.4,502.4,346.4z M514.1,607.2
		c-8.9,20.1-21.3,36.2-36.8,47.8c-26.5,19.9-53.8,20.3-54.1,20.3h-16.5l-0.8,0.1c-0.4,0.1-41.2,4.8-75-25.1
		c-30.6-27-46.1-73.4-46.1-138c0-69.8,15.6-119.9,46.5-148.9c25.4-23.9,53.1-25.6,60.5-25.6c1,0,1.6,0,1.8,0l0.9,0.1l1-0.1
		c25.3-2.1,61.5,0.9,89.9,27c30.6,28.1,46,77.1,46,145.7C531.5,548.8,525.6,581.4,514.1,607.2z"/>
	<linearGradient id="XMLID_4_" gradientUnits="userSpaceOnUse" x1="725.7305" y1="296.1057" x2="725.7305" y2="707.1469">
		<stop  offset="0" style="stop-color:#5DB8FF"/>
		<stop  offset="1" style="stop-color:#0076D1"/>
	</linearGradient>
	<path id="XMLID_865_" class="st2" d="M801,525.9c-19.4-16.8-45.3-29.2-70.4-41.2c-37.7-18-73.3-35-78.9-62.8
		c-4.4-22,0-42.4,12.3-57.5c14.3-17.4,37.7-26.6,67.7-26.6c24.4,0,42.5,7.2,53.9,21.3c8.6,10.7,10.3,21.8,10.3,21.9l0-0.1l24.8-3.1
		c-0.2-1.7-2.5-17.4-14.6-33.1c-11.2-14.6-33.2-31.9-74.3-31.9c-37.2,0-68.2,12.7-87.1,35.8c-17.2,21-23.4,48.8-17.5,78.3
		c8.1,40.1,51.1,60.6,92.7,80.4c23.6,11.2,47.9,22.9,64.8,37.5c17.4,15.1,24.5,31.5,22.5,51.7c-2.9,29.3-24.5,53.1-56.3,62
		c-17.8,5-37.3,4.7-55-0.7c-19.5-6-36.5-18-49.2-34.9l-7.5-10l-20,15l7.5,10c23.8,31.6,60,49.2,97.8,49.2c11,0,22.1-1.5,33.1-4.6
		c41.9-11.7,70.4-43.7,74.4-83.5C834.8,570.4,824.7,546.5,801,525.9z"/>
	<linearGradient id="XMLID_5_" gradientUnits="userSpaceOnUse" x1="180.1055" y1="296.1057" x2="180.1055" y2="707.1469">
		<stop  offset="0" style="stop-color:#5DB8FF"/>
		<stop  offset="1" style="stop-color:#0076D1"/>
	</linearGradient>
	<rect id="XMLID_866_" x="167.6" y="299.3" class="st3" width="25" height="38.4"/>
</g>
</svg>
