<?xml version="1.0" encoding="utf-8"?>
<!-- Generator: Adobe Illustrator 19.0.0, SVG Export Plug-In . SVG Version: 6.00 Build 0)  -->
<svg version="1.1" id="图层_1" xmlns="http://www.w3.org/2000/svg" xmlns:xlink="http://www.w3.org/1999/xlink" x="0px" y="0px"
	 viewBox="0 0 1000 1000" style="enable-background:new 0 0 1000 1000;" xml:space="preserve">
<style type="text/css">
	.st0{fill:url(#XMLID_2_);}
	.st1{fill:url(#XMLID_3_);}
	.st2{fill:url(#XMLID_4_);}
</style>
<g id="XMLID_792_">
	<linearGradient id="XMLID_2_" gradientUnits="userSpaceOnUse" x1="499.9999" y1="206.2422" x2="499.9999" y2="795.0566">
		<stop  offset="0" style="stop-color:#5DB8FF"/>
		<stop  offset="1" style="stop-color:#0076D1"/>
	</linearGradient>
	<path id="XMLID_818_" class="st0" d="M209,205.6v588.8H791V205.6H209z M766,769.4H234V230.6H766V769.4z"/>
	<linearGradient id="XMLID_3_" gradientUnits="userSpaceOnUse" x1="492.6555" y1="206.2422" x2="492.6555" y2="794.5176">
		<stop  offset="0" style="stop-color:#5DB8FF"/>
		<stop  offset="1" style="stop-color:#0076D1"/>
	</linearGradient>
	<path id="XMLID_819_" class="st1" d="M495.5,697.3c19.2,0,33.9-5.5,43.5-16.4c11.7-13.2,11.3-29.1,10.9-33.5V496.9h-25V648l0,0.6
		l0.1,0.8c0.1,0.9,0.5,9.1-4.8,15c-4.7,5.2-13,7.8-24.6,7.8c-32.5,0-35-16.2-35.2-18c0,0.2,0,0.3,0,0.3l-25,1.1
		C435.9,670,449.3,697.3,495.5,697.3z"/>
	<linearGradient id="XMLID_4_" gradientUnits="userSpaceOnUse" x1="645.8552" y1="206.2422" x2="645.8552" y2="794.5176">
		<stop  offset="0" style="stop-color:#5DB8FF"/>
		<stop  offset="1" style="stop-color:#0076D1"/>
	</linearGradient>
	<path id="XMLID_820_" class="st2" d="M639.9,672.3c-13.6,0-22.2-4.1-27.1-7.5c-5.9-4.2-8.4-8.9-8.8-11.9l-1.7-12.4l-24.8,3.4
		l1.7,12.4c1.5,10.9,8.5,21.4,19.2,29c11.2,7.9,25.6,12.1,41.5,12.1c25.5,0,46.6-7.2,59.5-20.2c10.2-10.4,15.2-23.9,14.9-40.2
		c-0.5-27.3-31-39.1-58-49.5c-20.1-7.8-42.9-16.6-44.6-28.2c-0.9-6.2,0.2-15.3,6.4-22.4c6.1-7.1,16.1-10.9,28.9-10.9
		c12.4,0,22.4,2.9,29.6,8.5c5.3,4.1,7.1,8.2,7.2,8.3c-0.1-0.2-0.1-0.2-0.1-0.2l23.3-9.2c-0.5-1.3-13.3-32.4-60-32.4
		c-25.7,0-40.2,10.6-47.9,19.6c-9.9,11.5-14.4,27.4-12.1,42.5c4,26,32.6,37.1,60.3,47.8c19.6,7.6,41.8,16.2,42,26.6
		c0.2,9.5-2.4,16.8-7.8,22.2C673.5,667.6,658.4,672.3,639.9,672.3z"/>
</g>
</svg>
