<?xml version="1.0" encoding="utf-8"?>
<!-- Generator: Adobe Illustrator 19.0.0, SVG Export Plug-In . SVG Version: 6.00 Build 0)  -->
<svg version="1.1" id="图层_1" xmlns="http://www.w3.org/2000/svg" xmlns:xlink="http://www.w3.org/1999/xlink" x="0px" y="0px"
	 viewBox="0 0 1000 1000" style="enable-background:new 0 0 1000 1000;" xml:space="preserve">
<style type="text/css">
	.st0{fill:url(#XMLID_2_);}
	.st1{fill:url(#XMLID_3_);}
	.st2{fill:url(#XMLID_4_);}
	.st3{fill:url(#XMLID_5_);}
</style>
<g id="XMLID_825_">
	<linearGradient id="XMLID_2_" gradientUnits="userSpaceOnUse" x1="458.3603" y1="174.583" x2="458.3603" y2="832.1908">
		<stop  offset="0" style="stop-color:#5DB8FF"/>
		<stop  offset="1" style="stop-color:#0076D1"/>
	</linearGradient>
	<path id="XMLID_826_" class="st0" d="M422.3,370c4.6,21.3,18.5,35,23.7,40.2l9.1,9.1l17.7-17.7l-9.1-9.1
		c-9.5-9.5-38.5-38.5,7.2-85.9c19-19.7,27.3-40.2,24.7-61c-4.3-34.4-37.4-55.2-38.8-56l-10.6-6.5L433,204.2l10.6,6.6
		c0.2,0.2,24.5,15.6,27.2,38c1.6,12.9-4.4,26.5-17.9,40.4C426.8,316.3,416.5,343.5,422.3,370z"/>
	<linearGradient id="XMLID_3_" gradientUnits="userSpaceOnUse" x1="566.4207" y1="174.583" x2="566.4207" y2="832.1908">
		<stop  offset="0" style="stop-color:#5DB8FF"/>
		<stop  offset="1" style="stop-color:#0076D1"/>
	</linearGradient>
	<path id="XMLID_827_" class="st1" d="M556.9,329c-16,15.1-18.6,30.3-18.1,40.4c1.5,26.1,24.6,44.2,27.2,46.1l10,7.5l15-20l-10-7.5
		c-4.3-3.2-16.5-15.1-17.2-27.6c-0.4-7.1,3-13.9,10.3-20.8c12.8-12.1,19.5-26.1,20-41.6c0.7-26.9-18.7-47.6-19.5-48.5l-8.6-9.1
		l-18.2,17.2l8.6,9.1c0.1,0.1,7.6,8.2,11,19.3C571.5,306.9,568.1,318.4,556.9,329z"/>
	<linearGradient id="XMLID_4_" gradientUnits="userSpaceOnUse" x1="547.2029" y1="174.583" x2="547.2029" y2="832.1908">
		<stop  offset="0" style="stop-color:#5DB8FF"/>
		<stop  offset="1" style="stop-color:#0076D1"/>
	</linearGradient>
	<path id="XMLID_830_" class="st2" d="M366.3,693.7c49.7,33.1,100.3,37,102.5,37.1l63.5,0l1-0.2c110.4-18.2,155.8-86.4,174.5-140.5
		c0.5-1.5,1-3,1.5-4.5c36.1-1.6,64.5-12.9,84.4-33.5c30-31.2,28.8-72.1,28.7-73.8l-0.5-12H273l-0.6,11.9
		c-2.6,53.7,6.1,100.5,25.7,139C314,648.4,336.9,674.1,366.3,693.7z M722.5,491.4h73.9c-1.9,11.5-6.9,29.3-20.9,43.7
		c-13.9,14.3-33.8,22.7-59.3,25.1C722.4,531.4,722.9,506.2,722.5,491.4z M297,491.4h400.4c0.5,17.6-0.4,53.8-13.6,91.5
		c-10.6,30.2-26.8,55.5-48.4,75.2c-26.8,24.5-62.2,40.6-105.2,47.8h-60.1c-4.4-0.4-47.8-4.9-90-33c-25.8-17.2-45.9-39.7-59.8-67
		C304.2,574.1,296.4,535.6,297,491.4z"/>
	<linearGradient id="XMLID_5_" gradientUnits="userSpaceOnUse" x1="496.1375" y1="174.583" x2="496.1375" y2="832.1908">
		<stop  offset="0" style="stop-color:#5DB8FF"/>
		<stop  offset="1" style="stop-color:#0076D1"/>
	</linearGradient>
	<path id="XMLID_832_" class="st3" d="M747.7,697.4c-24.5-5-47.1-7-48-7.1l-12.5-1.1l-2.2,24.9l12.5,1.1c0.2,0,22.6,2.1,45.9,6.9
		c36.8,7.6,44.7,15.4,46.1,17.3c0,0.1-0.1,0.1-0.1,0.2c-5.2,9.1-33.6,23.8-96.4,35.8c-54.7,10.4-122.7,16.2-192.9,16.6h-8.1
		c-70.2-0.4-138.2-6.3-192.9-16.6c-62.8-11.9-91.1-26.7-96.4-35.8c0-0.1-0.1-0.1-0.1-0.2c1.4-1.9,9.3-9.7,45.9-17.2
		c23.4-4.8,45.9-6.9,46.1-6.9l12.5-1.1l-2.2-24.9l-12.5,1.1c-1,0.1-23.5,2.1-48,7.1c-48.4,9.9-59.8,22.3-64.3,30.8
		c-3.9,7.5-3.6,16,0.9,23.8c11.3,19.6,49.4,35.7,113.4,47.8c53.9,10.2,120.2,16.2,188.9,17l0,0.1c4.2,0,8.5,0,12.7,0
		c1.4,0,2.9,0,4.3,0c2.8,0,5.6,0,8.4,0l0-0.1c68.7-0.8,134.9-6.8,188.9-17c63.9-12.1,102.1-28.2,113.4-47.8
		c4.5-7.8,4.8-16.3,0.9-23.8C807.6,719.7,796.1,707.3,747.7,697.4z"/>
</g>
</svg>
