<?xml version="1.0" encoding="utf-8"?>
<!-- Generator: Adobe Illustrator 19.0.0, SVG Export Plug-In . SVG Version: 6.00 Build 0)  -->
<svg version="1.1" id="图层_1" xmlns="http://www.w3.org/2000/svg" xmlns:xlink="http://www.w3.org/1999/xlink" x="0px" y="0px"
	 viewBox="-24 38 94 70" style="enable-background:new -24 38 94 70;" xml:space="preserve">
<style type="text/css">
	.st0{opacity:0.1;}
</style>
<g id="XMLID_56_" class="st0">
	<path id="XMLID_58_" d="M6,73.5l0.9-1l0.5,1.3c2.5,6.5,8.1,11,8.1,11.1c1.8,1.5,3.8,2.8,5.8,4c3.7,0.4,6.8,1.5,9,2.3
		c1.8,0.7,3.9,0.9,6,1c-3.4-2.6-5.3-5.6-5.4-5.8l-0.4-0.7l0.7-0.4c1.3-0.8,4.2-1.4,6.4-1.7c-4.7-4.6-10.5-6.1-10.5-6.1l-0.3-0.1
		l-0.2-0.2c-0.1-0.1-1.7-2.2-4.7-9.4c-2.8-6.9-8.9-11.7-9-11.8l0,0c-4.6-4-10.5-4.1-10.5-4.1l-0.3,0l-0.2-0.2
		c-1.5-1.6-4.5-2.6-6.2-2.5c-0.6,0-0.8,0.2-0.8,0.2c-0.1,0.1,0,0.5,0.3,1.2c0.4,0.7,1,1.4,1.5,2.1c0.4,0.5,0.7,0.8,0.9,1.2
		c0.8,1.3,1,2.2,1,2.3l0,0c0.4,2.5,2.9,7.3,3.6,7.8c1,0.8,0.9,2,0.7,2.6c-1.3,3.9-1.4,7.3-0.5,10.3c0.5,1.6,1.3,2.8,1.9,3.5
		C4.8,75.1,5.9,73.7,6,73.5z"/>
	<path id="XMLID_57_" d="M43.1,94.6c-3.5,0.6-8.8,1.1-12.7-0.4c-3.3-1.2-8.8-3.2-15.2-2.1S3,95.3,3,95.3s8.3-1.9,11.5-2.1
		c3.2-0.1,8,0.3,11.7,1.9c4.9,2.1,12.3,2.7,17.7,0.3c5.4-2.4,7.4-3.9,7.4-3.9S46.6,94,43.1,94.6z"/>
</g>
</svg>
