<?xml version="1.0" encoding="utf-8"?>
<!-- Generator: Adobe Illustrator 19.0.0, SVG Export Plug-In . SVG Version: 6.00 Build 0)  -->
<svg version="1.1" id="图层_1" xmlns="http://www.w3.org/2000/svg" xmlns:xlink="http://www.w3.org/1999/xlink" x="0px" y="0px"
	 viewBox="0 0 1000 1000" style="enable-background:new 0 0 1000 1000;" xml:space="preserve">
<style type="text/css">
	.st0{fill:url(#XMLID_2_);}
	.st1{fill:url(#XMLID_3_);}
	.st2{fill:url(#XMLID_4_);}
</style>
<g id="XMLID_869_">
	<linearGradient id="XMLID_2_" gradientUnits="userSpaceOnUse" x1="773.8538" y1="281.0803" x2="773.8538" y2="734.6122">
		<stop  offset="0" style="stop-color:#5DB8FF"/>
		<stop  offset="1" style="stop-color:#0076D1"/>
	</linearGradient>
	<path id="XMLID_872_" class="st0" d="M894.7,415.7c-22.6-29.8-60.4-30.5-62-30.6l-137.2,0l-58.2,330.6l24.6,4.3l19.6-111l68,4.2
		c4.6,0.6,32.8,3.8,64.6-5.7c32-9.5,73.6-33.9,90.2-96.1C915.1,470.6,911.9,438.3,894.7,415.7z M880,505
		c-10.9,40.6-35.2,67-72.4,78.4c-28.8,8.8-54.9,5.1-55.1,5.1l-0.5-0.1l-66.2-4.1l30.7-174.1h115.9c1.4,0,27.8,1.3,42.5,20.8
		C887.1,447.2,888.8,472.1,880,505z"/>
	<linearGradient id="XMLID_3_" gradientUnits="userSpaceOnUse" x1="226.1462" y1="281.0803" x2="226.1462" y2="734.6122">
		<stop  offset="0" style="stop-color:#5DB8FF"/>
		<stop  offset="1" style="stop-color:#0076D1"/>
	</linearGradient>
	<path id="XMLID_875_" class="st1" d="M285,385.1l-137.2,0L89.5,715.7l24.6,4.3l19.6-111l68,4.2c4.6,0.6,32.8,3.8,64.6-5.7
		c32-9.5,73.6-33.9,90.2-96.1c10.9-40.9,7.7-73.1-9.5-95.8C324.4,385.9,286.6,385.1,285,385.1z M332.3,505
		c-10.9,40.6-35.2,67-72.4,78.4c-28.8,8.8-54.9,5.1-55.1,5.1l-0.5-0.1l-66.2-4.1l30.7-174.1h116c1.1,0,27.6,1.2,42.4,20.7
		C339.4,447,341.1,471.9,332.3,505z"/>
	<linearGradient id="XMLID_4_" gradientUnits="userSpaceOnUse" x1="507.1178" y1="281.0803" x2="507.1178" y2="734.6122">
		<stop  offset="0" style="stop-color:#5DB8FF"/>
		<stop  offset="1" style="stop-color:#0076D1"/>
	</linearGradient>
	<path id="XMLID_876_" class="st2" d="M542.6,385.1h-87l17.2-100.9l-24.6-4.2l-58.5,342.1l24.6,4.2l36.9-216.2H543l0.9,0
		c0.3,0,29.3-1.6,44.9,15.7c10,11.1,13,28.4,8.9,51.5l-0.1,0.4c-14.1,95.3-25.2,138.7-25.3,139.1l-3.1,12.1l24.2,6.3l3.1-12.1
		c0.5-1.8,11.5-44.8,25.8-141.5c5.5-30.9,0.4-55.3-15-72.4C584.6,383.8,547.7,384.8,542.6,385.1z"/>
</g>
</svg>
