<?xml version="1.0" encoding="utf-8"?>
<!-- Generator: Adobe Illustrator 19.0.0, SVG Export Plug-In . SVG Version: 6.00 Build 0)  -->
<svg version="1.1" id="图层_1" xmlns="http://www.w3.org/2000/svg" xmlns:xlink="http://www.w3.org/1999/xlink" x="0px" y="0px"
	 viewBox="0 0 1000 1000" style="enable-background:new 0 0 1000 1000;" xml:space="preserve">
<style type="text/css">
	.st0{fill:url(#XMLID_2_);}
	.st1{fill:url(#XMLID_3_);}
	.st2{fill:url(#XMLID_4_);}
</style>
<g id="XMLID_308_">
	<linearGradient id="XMLID_2_" gradientUnits="userSpaceOnUse" x1="500" y1="172.2422" x2="500" y2="836.751">
		<stop  offset="0" style="stop-color:#5DB8FF"/>
		<stop  offset="1" style="stop-color:#0076D1"/>
	</linearGradient>
	<path id="XMLID_785_" class="st0" d="M815.4,408.4c-9.2-19.9-22.1-36.5-38.3-49.5c-27.8-22.1-55.8-25.6-56.9-25.7l-0.7-0.1h-56.1
		v-59.8c0-3.2-0.2-45.6-30.3-76.2c-19.7-20-47.3-30.2-81.9-30.2H450l-0.4,0c-1.1,0-28,0.9-55.2,12.8c-38,16.5-58.1,45.8-58.1,84.8
		V334h-60.7l-1.3,0.3c-1.1,0.2-27.9,6.1-54.3,30.5c-15.4,14.2-27.6,31.8-36.3,52.3c-10.7,25.1-16.1,54.7-16.1,87.8
		c0,33.3,5.7,62.5,17,86.8c9.2,19.9,22.1,36.5,38.3,49.5c27.8,22.1,55.8,25.6,56.9,25.7l0.7,0.1h56.1v59.8c0,3.1,0.1,45.6,30.3,76.2
		c19.7,20,47.3,30.2,81.9,30.2h101.4l0.2,0c1.1,0,28-0.9,55.2-12.8c38-16.5,58.1-45.8,58.1-84.8V666h60.7l1.3-0.3
		c1.1-0.2,27.9-6.1,54.3-30.5c15.4-14.2,27.6-31.8,36.3-52.3c10.7-25.1,16.1-54.7,16.1-87.8C832.4,461.9,826.7,432.7,815.4,408.4z
		 M334.8,642h-52.6c-3.6-0.6-23.7-4.5-43.7-20.4c-30.4-24.3-45.9-63.5-45.9-116.7c0-52.9,14.6-93.6,43.4-120.8
		c18.7-17.7,37.8-23.8,42.4-25.1h235.3v-25H361.3v-69.6c0-28.4,14.3-49.1,42.5-61.6c21.9-9.7,44.5-10.9,46.4-11h101
		c27.6,0,49.1,7.6,63.9,22.6c23.3,23.5,23.3,58.3,23.3,58.6l0,168.8c0,0.5,0,1,0,1.5c-1.9,8.1-5.8,17.8-13.5,25.9
		C613.6,481,596.3,487,573.5,487H420c-5.2-0.3-39.7-1.6-62.9,19.7c-12.6,11.6-19.4,27.3-20.3,46.8c-2.2,10.5-2.1,18.5-2,20.6V642z
		 M764,615.9c-18.7,17.7-37.8,23.8-42.4,25.1H486.2v25h152.5v69.6c0,28.4-14.3,49.1-42.5,61.6c-21.9,9.7-44.5,10.9-46.4,11h-101
		c-27.6,0-49.1-7.6-63.9-22.6c-23.3-23.5-23.3-58.3-23.3-58.6l0-168.8c0-0.5,0-1,0-1.5c1.9-8,5.7-17.7,13.3-25.7
		c11.3-11.9,28.6-18,51.5-18H580c5.2,0.3,39.7,1.6,62.9-19.7c12.6-11.6,19.4-27.3,20.3-46.8c2.2-10.5,2-18.5,2-20.6V358h52.6
		c3.6,0.6,23.7,4.5,43.7,20.4c30.4,24.3,45.9,63.5,45.9,116.7C807.4,548,792.8,588.7,764,615.9z"/>
	<linearGradient id="XMLID_3_" gradientUnits="userSpaceOnUse" x1="431.986" y1="172.2422" x2="431.986" y2="836.751">
		<stop  offset="0" style="stop-color:#5DB8FF"/>
		<stop  offset="1" style="stop-color:#0076D1"/>
	</linearGradient>
	<circle id="XMLID_787_" class="st1" cx="432" cy="269.9" r="16.5"/>
	<linearGradient id="XMLID_4_" gradientUnits="userSpaceOnUse" x1="574.9717" y1="172.2422" x2="574.9717" y2="836.751">
		<stop  offset="0" style="stop-color:#5DB8FF"/>
		<stop  offset="1" style="stop-color:#0076D1"/>
	</linearGradient>
	<circle id="XMLID_788_" class="st2" cx="575" cy="734.7" r="16.5"/>
</g>
</svg>
