<?xml version="1.0" encoding="utf-8"?>
<!-- Generator: Adobe Illustrator 16.0.0, SVG Export Plug-In . SVG Version: 6.00 Build 0)  -->
<!DOCTYPE svg PUBLIC "-//W3C//DTD SVG 1.1//EN" "http://www.w3.org/Graphics/SVG/1.1/DTD/svg11.dtd">
<svg version="1.1" id="图层_1" xmlns="http://www.w3.org/2000/svg" xmlns:xlink="http://www.w3.org/1999/xlink" x="0px" y="0px"
	 width="595.279px" height="511px" viewBox="0 164.445 595.279 511" enable-background="new 0 164.445 595.279 511"
	 xml:space="preserve">
<g>
	<path fill="#FFFFFF" d="M416.696,331.02h-0.633h-30.397v-32.93c0-1.267,0-24.064-16.465-41.163
		c-10.766-10.766-25.331-16.465-43.696-16.465h-55.095c-20.898,0.633-60.795,12.032-60.795,51.929v37.997h-32.297
		c-0.634,0-0.634,0-1.267,0c-0.634,0-56.995,13.298-56.995,91.826c0,79.158,59.528,86.758,60.161,86.758h0.634h30.397v32.932
		c0,1.266,0,24.064,16.465,41.162c10.766,10.766,25.331,16.465,43.696,16.465h55.095c20.898-0.633,60.795-12.031,60.795-51.928
		v-37.998h31.663c0.634,0,0.634,0,1.267,0c0.634,0,56.995-13.299,56.995-91.824C476.858,339.252,417.329,331.653,416.696,331.02z
		 M208.982,498.205h-29.131c-4.434-0.633-48.763-8.865-48.763-74.727c0-64.594,41.163-77.893,46.862-79.16h120.322
		c3.8,0,6.333-2.533,6.333-6.333s-2.533-6.333-6.333-6.333h-75.992v-37.997c0-37.363,46.229-39.263,48.129-39.896h54.461
		c15.199,0,26.598,4.433,34.831,12.032c12.665,12.666,12.665,31.664,12.665,32.297v91.192c0,0.633,0,0.633,0,0.633
		c-1.267,4.433-3.166,9.499-6.966,13.932c-6.333,6.333-15.832,10.132-27.864,10.132H255.21c-0.633,0-20.897-1.267-34.196,10.767
		c-6.333,5.699-10.133,13.932-10.766,24.064c-1.267,6.965-1.267,12.031-1.267,12.031V498.205L208.982,498.205z M417.329,497.572
		H297.007c-3.8,0-6.333,2.533-6.333,6.332c0,3.801,2.533,6.334,6.333,6.334H373v37.996c0,37.363-46.229,39.264-48.13,39.896h-54.461
		c-15.199,0-26.598-4.434-34.83-12.033c-12.666-12.664-12.666-31.664-12.666-32.297v-91.191c0-0.633,0-0.633,0-0.633
		c1.267-4.434,3.167-9.5,6.966-13.932c6.333-6.334,15.832-10.133,27.864-10.133h82.326c0.633,0,20.898,1.898,34.197-10.766
		c6.332-5.7,10.132-13.932,10.766-24.064c1.267-6.966,1.267-12.032,1.267-12.032v-37.363h29.131
		c4.433,0.633,48.762,8.866,48.762,74.727C464.192,483.005,423.029,496.304,417.329,497.572z"/>
	<circle id="XMLID_2_" fill="#FFFFFF" cx="260.91" cy="296.823" r="8.866"/>
	<circle id="XMLID_1_" fill="#FFFFFF" cx="338.169" cy="547.6" r="8.866"/>
</g>
</svg>
