<?xml version="1.0" encoding="utf-8"?>
<!-- Generator: Adobe Illustrator 19.0.0, SVG Export Plug-In . SVG Version: 6.00 Build 0)  -->
<svg version="1.1" id="图层_1" xmlns="http://www.w3.org/2000/svg" xmlns:xlink="http://www.w3.org/1999/xlink" x="0px" y="0px"
	 viewBox="0 0 1000 1000" style="enable-background:new 0 0 1000 1000;" xml:space="preserve">
<style type="text/css">
	.st0{fill:url(#XMLID_2_);}
</style>
<linearGradient id="XMLID_2_" gradientUnits="userSpaceOnUse" x1="500" y1="248.0474" x2="500" y2="751.9526">
	<stop  offset="0" style="stop-color:#5DB8FF"/>
	<stop  offset="1" style="stop-color:#0076D1"/>
</linearGradient>
<path id="XMLID_810_" class="st0" d="M704.6,248H294.3L146.7,402.6L500,752l353.3-349.4L704.6,248z M620.8,414.9L500,702.2
	L378.4,414.9H620.8z M394.7,389.9l107.8-111.2l103.6,111.2H394.7z M531.4,273h149.1l-46.4,110.2L531.4,273z M365.4,384.1l-47-111.1
	h154.7L365.4,384.1z M340.7,389.9H193.4l102.1-106.9L340.7,389.9z M351.3,414.9l112.6,266.2L194.6,414.9H351.3z M647.9,414.9h157.4
	L535.9,681.3L647.9,414.9z M658.5,389.9l45-107l102.9,107H658.5z"/>
</svg>
