<?xml version="1.0" encoding="utf-8"?>
<!-- Generator: Adobe Illustrator 19.0.0, SVG Export Plug-In . SVG Version: 6.00 Build 0)  -->
<svg version="1.1" id="图层_1" xmlns="http://www.w3.org/2000/svg" xmlns:xlink="http://www.w3.org/1999/xlink" x="0px" y="0px"
	 viewBox="0 0 253.9 300" style="enable-background:new 0 0 253.9 300;" xml:space="preserve">
<style type="text/css">
	.st0{fill:#C99E21;}
	.st1{fill:#F6D576;}
	.st2{fill:#040000;}
</style>
<g id="XMLID_1256_">
	<path id="XMLID_1269_" class="st0" d="M43.9,178.4c2.9,3.6,6.1,7.2,9.6,10.8c-10.3,3.1-17,8.8-21.2,13.9c-6.7,8-10.2,18.6-9.4,27.7
		H5.2C8.8,223.1,23,200.9,43.9,178.4"/>
	<path id="XMLID_1268_" class="st0" d="M249.2,235.7h-21.5c-49.4-25.8-92.8-44-138.9-47.9c0.1-6.4,1.2-13.7,3.4-21.8l-4.2-1.1
		c-2.3,8.3-3.4,15.8-3.6,22.6c-4.8-0.3-9.6-0.5-14.5-0.5c-4.1,0-7.9,0.4-11.3,1c-4.5-4.5-8.3-8.7-11.5-12.8
		c21.3-22.1,56.3-42.2,86.7-49.7c8.6,28.5,27,48.1,49.3,61.2c1.6-0.9,3.3-1.9,4.8-2.9l39,42l1.7-0.1c10.6-0.9,16.7,4.9,18.3,6.7
		C248.1,233.5,248.8,234.7,249.2,235.7"/>
	<path id="XMLID_1267_" class="st1" d="M230.1,95.3c0.8,38.7-19,69.6-46.6,85.4c-47-23.4-55.8-82.7-47.8-114.5
		c2.2,12.2,6.3,19.8,15,23.5c19.1-5.5,45.3-5.9,64.7-0.6c8.1-5.9,11.2-14.8,12.9-22.6C230.4,75.6,230.1,95.3,230.1,95.3"/>
	<path id="XMLID_1263_" class="st2" d="M166.9,100.4c1.6,0,2.8,0.7,3.6,2.1c1.9,3.3,1.6,9.9,0,16.7h-13v2.8h12.3
		c-1.3,4.7-3.2,9.3-5.2,13l-0.7,1.2l16.3,10.2l-9.2,6l1.6,2.4l10.2-6.7l11,7.2l1.5-2.4l-10.2-6.3c0,0,15.3-9.9,16.1-10.4
		c0,0,0,0,0,0l0,0c-3.4-5-4.4-9.2-3-14.1h1.1l12.3,0l0-2.8h-12.4c2.3-5.4,5.5-10.2,17-10.2v-2.8c-10.6,0-16.9,4.2-19.9,13.1h-22.8
		c1.6-7.1,1.9-14.1-0.5-18.1c-1.3-2.3-3.4-3.5-6-3.5c-9.4,0-13.1,9.6-13.3,10l2.7,1C156.4,108.3,159.4,100.4,166.9,100.4
		L166.9,100.4z M182.7,144.7l-12-7.6l23.5,0L182.7,144.7L182.7,144.7z M195.2,122.1c-1,3.2-0.6,8.1,1.9,12.2h-29
		c1.8-3.5,3.4-7.8,4.6-12.2H195.2L195.2,122.1z"/>
	<path id="XMLID_1262_" class="st2" d="M156.2,108.6L156.2,108.6L156.2,108.6L156.2,108.6"/>
	<path id="XMLID_1257_" class="st2" d="M250.2,229.2c-4.8-5.4-14.3-8-22.2-7.8c-5-6-31.7-34.2-37.1-39.8c11.1-7.8,20.8-18,28.2-30
		h14.7v-3.2H221c0.8-1.4,1.6-2.9,2.4-4.4h10.5v-3.2h-9c6.7-14.4,10.4-30.9,10-49c0,0,0,0,0,0c0-4.9-1.6-25.9-4.4-31.6
		c-7.7,2.9-21.7,12.4-24.8,22c-15.2-2.3-32.3-2-47.2,0.6C156,72.4,143.4,64.5,134,60c-4,6.7-5.8,22.4-5.3,33.5c0,0,0,0-0.1,0
		c0.4,10,1.7,19.2,3.9,27.7c-32.8,8.1-68.4,29.6-88.4,50.3c-9.3-12.6-13-22.9-14.1-30.8c-1.4-9.9,1-19,6.8-26.3
		c9.2-11.4,22.2-12.2,35.6-9.9c-0.3,2.1,0,4.1,0.9,5.4c3.5,5.2,22.6,7.1,34,2c-8.4-11.8-25.4-17.5-30.1-15.2
		c-1.6,0.8-2.7,2.2-3.5,3.8C69,99.7,64.4,99,61,99.1c-11.8,0.1-20.9,4.2-27.6,12.6c-6.6,8.2-9.3,18.5-7.8,29.6
		c1.5,10.5,6.7,21.8,15.4,33.4c-1.5,1.6-2.9,3.1-4.2,4.6C15.6,203.2,0,228.7,0,233v2.2h28.1l-0.5-2.6c-1.6-8.4,1.6-18.9,8.1-26.7
		c4.1-4.9,10.8-10.5,21.4-13.1c9.4,9.2,21.4,19,34.8,28.4h20.9v-2.2c0-2.5-1.2-4.6-3.5-6.1c-3.3-2.2-8.4-2.5-13.1-0.9
		c-4.5-5-7-11.6-7.5-19.9c45.4,4,88.8,22.3,137.7,47.9h26.9l0.4-1.8C254.3,235.7,253,232.4,250.2,229.2L250.2,229.2z M135.7,66.1
		c2.2,12.2,6.3,19.8,15,23.5c7.8-2.2,16.7-3.6,25.9-4.1l7.6,16.7l4.9-16.8c9.3,0.3,18.4,1.5,26.3,3.7c8.1-5.9,11.2-14.8,12.9-22.6
		c2.1,9.1,1.9,28.8,1.9,28.8c0.1,7.3-0.4,14.4-1.7,21.1l-8.7,3.7l7.7,1.2c-0.6,2.6-1.3,5.1-2.1,7.6l-7.4,2.2l5.9,2.1
		c-1,2.7-2.1,5.3-3.3,7.8h-12.2v3.2h10.6c-0.8,1.5-1.6,3-2.5,4.4h-8.1v3.2h6.1c-8,12.2-18.7,22-30.9,29c-14.1-7-24.7-17.2-32.5-29
		h4.7v-3.2H149c-0.9-1.5-1.7-2.9-2.5-4.4h9.2v-3.2h-10.8c-1.9-3.8-3.5-7.7-4.9-11.6l5.5-1.5l-7-2.8c-0.7-2.3-1.3-4.6-1.9-6.8
		l10.7-0.7l-12.3-6.5C132,94.3,132.6,78.2,135.7,66.1L135.7,66.1z M32.3,203c-6.7,8-10.2,18.6-9.4,27.7H5.2
		c3.6-7.7,17.7-30,38.7-52.5c2.9,3.6,6.1,7.2,9.6,10.8C43.3,192.2,36.5,198,32.3,203L32.3,203z M227.6,235.6
		c-49.4-25.8-92.8-44-138.9-47.9c0.1-6.4,1.2-13.7,3.4-21.8l-4.2-1.1c-2.3,8.3-3.4,15.8-3.6,22.6c-4.8-0.3-9.6-0.5-14.5-0.5
		c-4.1,0-7.9,0.4-11.3,1.1c-4.5-4.5-8.3-8.7-11.5-12.8c5.8-6,12.6-11.9,20-17.3l10.3,7.1l-3.4-12c3.1-2.1,6.3-4.1,9.6-6.1l15.2,7.7
		l-7.2-12.3c2.1-1.1,4.2-2.2,6.3-3.3l21.3,14.3l-7-20.7c7.3-2.9,14.5-5.3,21.5-7.1c1.6,5.5,3.7,10.6,6,15.4H130v3.2h11.3
		c0.8,1.5,1.6,3,2.5,4.4H130v3.2h15.7c9.6,14.9,22.6,26.4,37.3,35c1.6-0.9,3.2-1.9,4.8-3l3.9,4.2l-6.5,10l11.1-5l6.4,6.9l-10.8,8.2
		l14.9-3.9l20.1,21.6l1.7-0.1c10.7-0.9,16.7,4.9,18.3,6.7c1.2,1.3,1.9,2.5,2.3,3.5H227.6L227.6,235.6z"/>
</g>
</svg>
